<svg xmlns="http://www.w3.org/2000/svg" width="18" height="18" viewBox="0 0 18 18">
    <g fill="none" fill-rule="evenodd">
        <path d="M-1-1h20v20H-1z"/>
        <path fill="#FFF" fill-rule="nonzero" d="M3.782 11.375c0 1.04-.85 1.89-1.891 1.89-1.04 0-1.891-.85-1.891-1.89 0-1.041.85-1.891 1.89-1.891h1.892v1.89zm.953 0c0-1.041.85-1.891 1.89-1.891 1.041 0 1.891.85 1.891 1.89v4.735c0 1.04-.85 1.891-1.89 1.891-1.041 0-1.891-.85-1.891-1.89v-4.735zm1.89-7.593c-1.04 0-1.89-.85-1.89-1.891C4.735.85 5.585 0 6.625 0c1.041 0 1.891.85 1.891 1.89v1.892h-1.89zm0 .953c1.041 0 1.891.85 1.891 1.89 0 1.041-.85 1.891-1.89 1.891H1.89C.85 8.516 0 7.666 0 6.626c0-1.041.85-1.891 1.89-1.891h4.735zm7.593 1.89c0-1.04.85-1.89 1.891-1.89 1.04 0 1.891.85 1.891 1.89 0 1.041-.85 1.891-1.89 1.891h-1.892v-1.89zm-.953 0c0 1.041-.85 1.891-1.89 1.891-1.041 0-1.891-.85-1.891-1.89V1.89c0-1.04.85-1.891 1.89-1.891 1.041 0 1.891.85 1.891 1.89v4.735zm-1.89 7.593c1.04 0 1.89.85 1.89 1.891 0 1.04-.85 1.891-1.89 1.891-1.041 0-1.891-.85-1.891-1.89v-1.892h1.89zm0-.953c-1.041 0-1.891-.85-1.891-1.89 0-1.041.85-1.891 1.89-1.891h4.735c1.04 0 1.891.85 1.891 1.89 0 1.041-.85 1.891-1.89 1.891h-4.735z"/>
    </g>
</svg>
